<?xml version="1.0" standalone="no"?>
<!DOCTYPE svg PUBLIC "-//W3C//DTD SVG 20010904//EN"
 "http://www.w3.org/TR/2001/REC-SVG-20010904/DTD/svg10.dtd">
<svg version="1.0" xmlns="http://www.w3.org/2000/svg"
 width="512.000000pt" height="512.000000pt" viewBox="0 0 512.000000 512.000000"
 preserveAspectRatio="xMidYMid meet">
<metadata>
Created by potrace 1.14, written by Peter Selinger 2001-2017
</metadata>
<g transform="translate(0.000000,512.000000) scale(0.100000,-0.100000)"
fill="#000000" stroke="none">
<path d="M4046 3432 c-2 -1 -23 -5 -47 -8 -24 -3 -52 -7 -61 -10 -9 -3 -25 -7
-36 -9 -71 -13 -193 -69 -257 -118 -73 -55 -166 -161 -208 -237 -23 -41 -42
-79 -42 -85 0 -11 -18 -11 -140 1 -87 9 -530 9 -635 1 -60 -5 -115 -11 -197
-23 -18 -2 -50 -6 -70 -9 -39 -5 -81 -12 -119 -19 -12 -2 -39 -7 -60 -11 -22
-4 -48 -9 -59 -11 -30 -5 -64 -13 -130 -29 -60 -15 -78 -20 -125 -29 -22 -5
-186 -51 -215 -60 -5 -2 -13 -4 -17 -5 -4 -1 -40 -14 -80 -28 -40 -14 -77 -26
-83 -28 -5 -1 -23 -7 -40 -14 -42 -16 -60 -22 -63 -21 -1 0 -16 -7 -32 -15
-16 -8 -33 -16 -37 -16 -5 0 -28 -9 -52 -20 -60 -26 -91 -33 -91 -21 0 17
-146 157 -205 196 -148 99 -335 140 -510 112 -65 -10 -168 -38 -196 -52 -15
-7 -29 -10 -33 -7 -3 4 -6 1 -6 -5 0 -7 -6 -12 -14 -12 -17 0 -135 -59 -154
-77 -7 -7 -18 -13 -23 -13 -5 0 -9 -536 -9 -1375 l0 -1375 2560 0 2559 0 0
1113 0 1112 -49 34 c-28 19 -50 38 -50 43 0 4 -5 8 -11 8 -12 0 -89 57 -101
75 -4 5 -6 17 -3 25 18 63 25 266 11 345 -20 115 -60 219 -115 305 -30 46
-155 180 -202 215 -31 23 -120 75 -129 75 -6 0 -10 5 -10 10 0 5 -3 9 -7 8 -5
-1 -18 3 -30 10 -13 7 -23 10 -23 6 0 -3 -6 -2 -12 4 -28 22 -325 61 -342 44z"/>
</g>
</svg>
